<svg width="18" height="17" viewBox="0 0 18 17" fill="none" xmlns="http://www.w3.org/2000/svg">
<path d="M11.2569 8.0385L9.50974 11.8102C9.29881 12.2693 8.68713 12.2541 8.49378 11.7874L6.4935 6.99503L5.43888 9.71564H2.13087L8.54651 16.7923C8.79611 17.0692 9.20038 17.0692 9.44997 16.7923L15.8691 9.71564H12.0338L11.2569 8.0385ZM16.6531 1.59176L16.5687 1.4969C14.7583 -0.498968 11.7948 -0.498968 9.9808 1.4969L9 2.58211L8.0192 1.5007C6.20876 -0.498968 3.24174 -0.498968 1.4313 1.5007L1.34693 1.59176C-0.365081 3.48139 -0.438905 6.49038 1.0903 8.50142H4.69009L5.95213 5.23062C6.14196 4.74114 6.78177 4.72976 6.98566 5.21545L9.03164 10.1216L10.7542 6.4069C10.9616 5.95915 11.5522 5.95915 11.7596 6.4069L12.7299 8.50142H16.9097C18.4389 6.49038 18.3651 3.48139 16.6531 1.59176Z" fill="#F47921"/>
</svg>
