<svg width="22" height="17" viewBox="0 0 22 17" fill="none" xmlns="http://www.w3.org/2000/svg">
<path d="M11.0002 3.81862L2.6537 10.2171C2.59183 10.2655 2.51276 10.2881 2.44478 10.3283V16.4688C2.44478 16.6097 2.50916 16.7448 2.62377 16.8444C2.73837 16.944 2.89381 17 3.05588 17H18.9445C19.1066 17 19.262 16.944 19.3766 16.8444C19.4912 16.7448 19.5556 16.6097 19.5556 16.4688V10.3296C19.4907 10.2911 19.4135 10.2692 19.3547 10.2234L11.0002 3.81862ZM14.6668 12.4845C14.6668 12.5549 14.6346 12.6225 14.5773 12.6723C14.52 12.7221 14.4423 12.7501 14.3612 12.7501H12.2224V14.6094C12.2224 14.6799 12.1902 14.7474 12.1329 14.7972C12.0756 14.8471 11.9979 14.875 11.9168 14.875H10.0835C10.0025 14.875 9.92477 14.8471 9.86747 14.7972C9.81017 14.7474 9.77798 14.6799 9.77798 14.6094V12.7501H7.63913C7.55809 12.7501 7.48037 12.7221 7.42307 12.6723C7.36577 12.6225 7.33358 12.5549 7.33358 12.4845V10.8907C7.33358 10.8203 7.36577 10.7527 7.42307 10.7029C7.48037 10.6531 7.55809 10.6251 7.63913 10.6251H9.77798V8.76579C9.77798 8.69534 9.81017 8.62778 9.86747 8.57796C9.92477 8.52815 10.0025 8.50016 10.0835 8.50016H11.9168C11.9979 8.50016 12.0756 8.52815 12.1329 8.57796C12.1902 8.62778 12.2224 8.69534 12.2224 8.76579V10.6251H14.3612C14.4423 10.6251 14.52 10.6531 14.5773 10.7029C14.6346 10.7527 14.6668 10.8203 14.6668 10.8907V12.4845ZM21.7972 7.84541L12.0219 0.341652C11.7421 0.121752 11.3783 0 11.0011 0C10.6239 0 10.2602 0.121752 9.98041 0.341652L0.202807 7.84541C0.14308 7.89204 0.0945046 7.94843 0.0598564 8.01138C0.0252081 8.07433 0.00516569 8.14259 0.000874016 8.21228C-0.00341766 8.28196 0.00812553 8.3517 0.0348442 8.4175C0.0615628 8.4833 0.102933 8.54389 0.156592 8.59579L0.97432 9.38667C1.02795 9.43859 1.09283 9.48082 1.16524 9.51094C1.23765 9.54106 1.31618 9.55848 1.39634 9.56221C1.47649 9.56595 1.55671 9.55591 1.63241 9.53268C1.70811 9.50946 1.7778 9.47349 1.8375 9.42685L10.5961 2.71065C10.7077 2.62503 10.8515 2.57778 11.0004 2.57778C11.1493 2.57778 11.293 2.62503 11.4047 2.71065L20.1632 9.42651C20.2229 9.47316 20.2926 9.50913 20.3683 9.53235C20.444 9.55558 20.5242 9.56561 20.6044 9.56188C20.6846 9.55815 20.7631 9.54073 20.8355 9.51061C20.9079 9.48049 20.9728 9.43826 21.0264 9.38634L21.8438 8.59546C21.952 8.49061 22.0078 8.3527 21.9991 8.21205C21.9904 8.0714 21.9177 7.93952 21.7972 7.84541Z" fill="#F47921"/>
</svg>
