<svg width="18" height="20" viewBox="0 0 18 20" fill="none" xmlns="http://www.w3.org/2000/svg">
<path d="M12.7269 12.5001L8.99993 16.2262L5.27301 12.5001C2.48045 12.6212 0.25 14.9063 0.25 17.7262C0.25 18.3292 0.489561 18.9076 0.915983 19.334C1.34241 19.7604 1.92076 20 2.52381 20H15.476C16.0791 20 16.6575 19.7604 17.0839 19.334C17.5103 18.9076 17.7499 18.3292 17.7499 17.7262C17.7499 14.9063 15.5194 12.6212 12.7269 12.5001ZM8.99993 11.8751C10.326 11.8751 11.5978 11.3483 12.5354 10.4106C13.4731 9.47294 13.9999 8.20118 13.9999 6.87511V2.57124C14.0002 2.31655 13.9227 2.06785 13.7778 1.85842C13.6329 1.64899 13.4274 1.48883 13.189 1.39937L9.87766 0.159148C9.31174 -0.0530493 8.68812 -0.0530493 8.1222 0.159148L4.8109 1.40093C4.57269 1.4903 4.36743 1.65022 4.22252 1.85934C4.07762 2.06846 3.99998 2.31682 3.99997 2.57124V6.87511C3.99997 8.20118 4.52675 9.47294 5.46442 10.4106C6.4021 11.3483 7.67386 11.8751 8.99993 11.8751ZM7.43744 2.79975C7.43744 2.74795 7.45802 2.69827 7.49465 2.66165C7.53127 2.62502 7.58095 2.60444 7.63275 2.60444H8.47923V1.75796C8.47923 1.70616 8.49981 1.65649 8.53643 1.61986C8.57306 1.58323 8.62274 1.56265 8.67454 1.56265H9.32532C9.37712 1.56265 9.42679 1.58323 9.46342 1.61986C9.50005 1.65649 9.52063 1.70616 9.52063 1.75796V2.60444H10.3671C10.4189 2.60444 10.4686 2.62502 10.5052 2.66165C10.5418 2.69827 10.5624 2.74795 10.5624 2.79975V3.45053C10.5624 3.50233 10.5418 3.552 10.5052 3.58863C10.4686 3.62526 10.4189 3.64584 10.3671 3.64584H9.52063V4.49232C9.52063 4.54412 9.50005 4.59379 9.46342 4.63042C9.42679 4.66705 9.37712 4.68763 9.32532 4.68763H8.67454C8.62274 4.68763 8.57306 4.66705 8.53643 4.63042C8.49981 4.59379 8.47923 4.54412 8.47923 4.49232V3.64584H7.63275C7.58095 3.64584 7.53127 3.62526 7.49465 3.58863C7.45802 3.552 7.43744 3.50233 7.43744 3.45053V2.79975ZM5.87495 6.25011H12.1249V6.87511C12.1249 7.7039 11.7957 8.49875 11.2096 9.0848C10.6236 9.67085 9.82872 10.0001 8.99993 10.0001C8.17113 10.0001 7.37628 9.67085 6.79024 9.0848C6.20419 8.49875 5.87495 7.7039 5.87495 6.87511V6.25011Z" fill="#F47921"/>
</svg>
