<svg width="22" height="18" viewBox="0 0 22 18" fill="none" xmlns="http://www.w3.org/2000/svg">
<path d="M7.975 7.875H9.9V9.84375C9.9 9.91834 9.92897 9.98988 9.98055 10.0426C10.0321 10.0954 10.1021 10.125 10.175 10.125H11.825C11.8979 10.125 11.9679 10.0954 12.0195 10.0426C12.071 9.98988 12.1 9.91834 12.1 9.84375V7.875H14.025C14.0979 7.875 14.1679 7.84537 14.2195 7.79262C14.271 7.73988 14.3 7.66834 14.3 7.59375V5.90625C14.3 5.83166 14.271 5.76012 14.2195 5.70738C14.1679 5.65463 14.0979 5.625 14.025 5.625H12.1V3.65625C12.1 3.58166 12.071 3.51012 12.0195 3.45738C11.9679 3.40463 11.8979 3.375 11.825 3.375H10.175C10.1021 3.375 10.0321 3.40463 9.98055 3.45738C9.92897 3.51012 9.9 3.58166 9.9 3.65625V5.625H7.975C7.90207 5.625 7.83212 5.65463 7.78055 5.70738C7.72897 5.76012 7.7 5.83166 7.7 5.90625V7.59375C7.7 7.66834 7.72897 7.73988 7.78055 7.79262C7.83212 7.84537 7.90207 7.875 7.975 7.875ZM19.8 1.6875C19.7987 1.24035 19.6245 0.811878 19.3153 0.495692C19.0062 0.179505 18.5872 0.00129852 18.15 0L3.85 0C3.41278 0.00129852 2.99384 0.179505 2.68468 0.495692C2.37552 0.811878 2.20127 1.24035 2.2 1.6875V13.5H19.8V1.6875ZM17.6 11.25H4.4V2.25H17.6V11.25ZM21.45 14.625H13.1154C13.09 15.3214 12.6098 15.75 11.99 15.75H9.9C9.25753 15.75 8.76562 15.1358 8.77353 14.625H0.55C0.404131 14.625 0.264236 14.6843 0.161091 14.7898C0.0579463 14.8952 0 15.0383 0 15.1875L0 15.75C0.00172296 16.3462 0.234061 16.9175 0.646268 17.339C1.05848 17.7606 1.61705 17.9982 2.2 18H19.8C20.3829 17.9982 20.9415 17.7606 21.3537 17.339C21.7659 16.9175 21.9983 16.3462 22 15.75V15.1875C22 15.0383 21.9421 14.8952 21.8389 14.7898C21.7358 14.6843 21.5959 14.625 21.45 14.625Z" fill="#F47921"/>
</svg>
