<svg width="18" height="20" viewBox="0 0 18 20" fill="none" xmlns="http://www.w3.org/2000/svg">
<path d="M9 10C11.7617 10 14 7.76172 14 5C14 2.23828 11.7617 0 9 0C6.23828 0 4 2.23828 4 5C4 7.76172 6.23828 10 9 10ZM4.3125 16.5625C4.3125 17.082 4.73047 17.5 5.25 17.5C5.76953 17.5 6.1875 17.082 6.1875 16.5625C6.1875 16.043 5.76953 15.625 5.25 15.625C4.73047 15.625 4.3125 16.043 4.3125 16.5625ZM12.75 11.2734V13.1875C14.1758 13.4766 15.25 14.7422 15.25 16.25V17.8789C15.25 18.1758 15.0391 18.4336 14.7461 18.4922L13.4883 18.7422C13.3203 18.7773 13.1562 18.668 13.1211 18.4961L13 17.8828C12.9648 17.7148 13.0742 17.5469 13.2461 17.5156L14 17.3633V16.25C14 13.7969 10.25 13.707 10.25 16.3242V17.3672L11.0039 17.5195C11.1719 17.5547 11.2812 17.7188 11.25 17.8867L11.1289 18.5C11.0938 18.668 10.9297 18.7773 10.7617 18.7461L9.54297 18.582C9.23438 18.5391 9.00391 18.2773 9.00391 17.9609V16.25C9.00391 14.7422 10.0781 13.4805 11.5039 13.1875V11.4219C11.418 11.4492 11.332 11.4648 11.2461 11.4961C10.543 11.7422 9.78906 11.8789 9.00391 11.8789C8.21875 11.8789 7.46484 11.7422 6.76172 11.4961C6.47266 11.3945 6.17969 11.332 5.87891 11.293V14.4805C6.78125 14.75 7.44141 15.5781 7.44141 16.5664C7.44141 17.7734 6.46094 18.7539 5.25391 18.7539C4.04688 18.7539 3.06641 17.7734 3.06641 16.5664C3.06641 15.5781 3.72656 14.75 4.62891 14.4805V11.3398C2.14453 11.7578 0.25 13.8984 0.25 16.5V18.25C0.25 19.2148 1.03516 20 2 20H16C16.9648 20 17.75 19.2148 17.75 18.25V16.5C17.75 13.6875 15.5312 11.4102 12.75 11.2734Z" fill="#F47921"/>
</svg>
