<svg width="20" height="18" viewBox="0 0 20 18" fill="none" xmlns="http://www.w3.org/2000/svg">
<path d="M6.33753 12.375C6.26471 12.375 6.19189 12.3873 6.12243 12.4133C5.72755 12.5613 5.31226 12.6562 4.87504 12.6562C4.43781 12.6562 4.02252 12.5613 3.62735 12.4133C3.55788 12.3873 3.48536 12.375 3.41254 12.375C1.52165 12.375 -0.0100054 14.1497 4.92215e-05 16.3343C0.00431484 17.2575 0.662134 18 1.46255 18H8.28753C9.08794 18 9.74576 17.2575 9.75003 16.3343C9.76008 14.1497 8.22842 12.375 6.33753 12.375ZM4.87504 11.25C6.49049 11.25 7.80003 9.73898 7.80003 7.875C7.80003 6.01102 6.49049 4.5 4.87504 4.5C3.25959 4.5 1.95004 6.01102 1.95004 7.875C1.95004 9.73898 3.25959 11.25 4.87504 11.25ZM18.0375 0H6.33753C5.53103 0 4.87504 0.782227 4.87504 1.7434V3.375C5.58861 3.375 6.24918 3.61336 6.82503 4.00078V2.25H17.55V12.375H15.6V10.125H11.7V12.375H9.37709C9.95904 12.9618 10.3862 13.7366 10.5864 14.625H18.0375C18.844 14.625 19.5 13.8428 19.5 12.8816V1.7434C19.5 0.782227 18.844 0 18.0375 0Z" fill="#F47921"/>
</svg>
