<svg width="24" height="24" viewBox="0 0 24 24" fill="none" xmlns="http://www.w3.org/2000/svg">
<path d="M15.7269 14.5001L11.9999 18.2262L8.27301 14.5001C5.48045 14.6212 3.25 16.9063 3.25 19.7262C3.25 20.3292 3.48956 20.9076 3.91598 21.334C4.34241 21.7604 4.92076 22 5.52381 22H18.476C19.0791 22 19.6575 21.7604 20.0839 21.334C20.5103 20.9076 20.7499 20.3292 20.7499 19.7262C20.7499 16.9063 18.5194 14.6212 15.7269 14.5001ZM11.9999 13.8751C13.326 13.8751 14.5978 13.3483 15.5354 12.4106C16.4731 11.4729 16.9999 10.2012 16.9999 8.87511V4.57124C17.0002 4.31655 16.9227 4.06785 16.7778 3.85842C16.6329 3.64899 16.4274 3.48883 16.189 3.39937L12.8777 2.15915C12.3117 1.94695 11.6881 1.94695 11.1222 2.15915L7.8109 3.40093C7.57269 3.4903 7.36743 3.65022 7.22252 3.85934C7.07762 4.06846 6.99998 4.31682 6.99997 4.57124V8.87511C6.99997 10.2012 7.52675 11.4729 8.46442 12.4106C9.4021 13.3483 10.6739 13.8751 11.9999 13.8751ZM10.4374 4.79975C10.4374 4.74795 10.458 4.69827 10.4946 4.66165C10.5313 4.62502 10.581 4.60444 10.6328 4.60444H11.4792V3.75796C11.4792 3.70616 11.4998 3.65649 11.5364 3.61986C11.5731 3.58323 11.6227 3.56265 11.6745 3.56265H12.3253C12.3771 3.56265 12.4268 3.58323 12.4634 3.61986C12.5 3.65649 12.5206 3.70616 12.5206 3.75796V4.60444H13.3671C13.4189 4.60444 13.4686 4.62502 13.5052 4.66165C13.5418 4.69827 13.5624 4.74795 13.5624 4.79975V5.45053C13.5624 5.50233 13.5418 5.552 13.5052 5.58863C13.4686 5.62526 13.4189 5.64584 13.3671 5.64584H12.5206V6.49232C12.5206 6.54412 12.5 6.59379 12.4634 6.63042C12.4268 6.66705 12.3771 6.68763 12.3253 6.68763H11.6745C11.6227 6.68763 11.5731 6.66705 11.5364 6.63042C11.4998 6.59379 11.4792 6.54412 11.4792 6.49232V5.64584H10.6328C10.581 5.64584 10.5313 5.62526 10.4946 5.58863C10.458 5.552 10.4374 5.50233 10.4374 5.45053V4.79975ZM8.87495 8.25011H15.1249V8.87511C15.1249 9.7039 14.7957 10.4988 14.2096 11.0848C13.6236 11.6708 12.8287 12.0001 11.9999 12.0001C11.1711 12.0001 10.3763 11.6708 9.79024 11.0848C9.20419 10.4988 8.87495 9.7039 8.87495 8.87511V8.25011Z" fill="#F47921"/>
</svg>
