<svg width="23" height="16" viewBox="0 0 23 16" fill="none" xmlns="http://www.w3.org/2000/svg">
<path d="M3.45 6.85714C4.71859 6.85714 5.75 5.83214 5.75 4.57143C5.75 3.31071 4.71859 2.28571 3.45 2.28571C2.18141 2.28571 1.15 3.31071 1.15 4.57143C1.15 5.83214 2.18141 6.85714 3.45 6.85714ZM19.55 6.85714C20.8186 6.85714 21.85 5.83214 21.85 4.57143C21.85 3.31071 20.8186 2.28571 19.55 2.28571C18.2814 2.28571 17.25 3.31071 17.25 4.57143C17.25 5.83214 18.2814 6.85714 19.55 6.85714ZM20.7 8H18.4C17.7675 8 17.1961 8.25357 16.7792 8.66429C18.2275 9.45357 19.2553 10.8786 19.4781 12.5714H21.85C22.4861 12.5714 23 12.0607 23 11.4286V10.2857C23 9.025 21.9686 8 20.7 8ZM11.5 8C13.7245 8 15.525 6.21071 15.525 4C15.525 1.78929 13.7245 0 11.5 0C9.27547 0 7.475 1.78929 7.475 4C7.475 6.21071 9.27547 8 11.5 8ZM14.26 9.14286H13.9617C13.2142 9.5 12.3841 9.71429 11.5 9.71429C10.6159 9.71429 9.78937 9.5 9.03828 9.14286H8.74C6.45437 9.14286 4.6 10.9857 4.6 13.2571V14.2857C4.6 15.2321 5.37266 16 6.325 16H16.675C17.6273 16 18.4 15.2321 18.4 14.2857V13.2571C18.4 10.9857 16.5456 9.14286 14.26 9.14286ZM6.22078 8.66429C5.80391 8.25357 5.2325 8 4.6 8H2.3C1.03141 8 0 9.025 0 10.2857V11.4286C0 12.0607 0.513906 12.5714 1.15 12.5714H3.51828C3.74469 10.8786 4.7725 9.45357 6.22078 8.66429Z" fill="#F47921"/>
</svg>
